<?xml version="1.0" encoding="iso-8859-1"?>
<!-- Generator: Adobe Illustrator 23.0.2, SVG Export Plug-In . SVG Version: 6.00 Build 0)  -->
<svg version="1.1" id="Lager_1" xmlns="http://www.w3.org/2000/svg" xmlns:xlink="http://www.w3.org/1999/xlink" x="0px" y="0px"
	 width="345.81px" height="279.093px" viewBox="0 0 345.81 279.093" enable-background="new 0 0 345.81 279.093"
	 xml:space="preserve">
<g>
	<polygon style="fill:#eceae5;" points="312.905,105.591 312.905,36.48 32.905,36.48 32.905,157.794 274.727,157.794 274.727,203.615 71.083,203.615 
		71.083,173.502 32.905,173.502 32.905,242.613 312.905,242.613 312.905,121.299 71.084,121.299 71.084,75.478 274.728,75.478 
		274.728,105.591 	"/>
	<g>
		<path style="fill:#eceae5;" d="M84.035,100.561h2.426c0.127,1.167,0.875,1.687,2.229,1.687c0.93,0,1.805-0.375,1.805-1.254
			c0-0.936-0.889-1.139-2.412-1.498c-2.045-0.475-3.71-0.995-3.71-3.227c0-2.22,1.778-3.227,4.091-3.227
			c2.313,0,3.949,1.095,4.104,3.198h-2.355c-0.128-0.835-0.776-1.326-1.821-1.326c-0.987,0-1.65,0.433-1.65,1.11
			c0,0.835,0.903,1.022,2.553,1.397c1.891,0.432,3.626,1.065,3.626,3.329c0,2.218-1.834,3.458-4.232,3.458
			C85.883,104.208,84.106,102.881,84.035,100.561z"/>
		<path style="fill:#eceae5;" d="M98.437,98.631c0-3.213,2.004-5.59,5.191-5.59c3.173,0,5.177,2.377,5.177,5.59c0,3.198-2.004,5.576-5.177,5.576
			C100.44,104.208,98.437,101.829,98.437,98.631z M100.82,90.706h2.158v1.931h-2.158V90.706z M106.349,98.631
			c0-2.031-0.903-3.603-2.708-3.603c-1.819,0-2.75,1.572-2.75,3.603c0,2.017,0.93,3.558,2.75,3.558
			C105.447,102.189,106.349,100.648,106.349,98.631z M104.277,90.706h2.144v1.931h-2.144V90.706z"/>
		<path style="fill:#eceae5;" d="M114.741,93.228h4.373c2.948,0,4.838,2.146,4.838,5.431c0,3.184-1.764,5.288-4.98,5.288h-4.232V93.228z M118.79,101.873
			c1.819,0,2.708-1.167,2.708-3.213c0-2.031-0.903-3.357-2.666-3.357h-1.679v6.57H118.79z"/>
		<path style="fill:#eceae5;" d="M129.834,93.228h4.993c2.045,0,3.583,1.109,3.583,3.069c0,1.254-0.607,2.162-1.947,2.609v0.042
			c1.044,0.332,1.51,0.922,1.65,2.075c0.198,1.456,0.113,2.665,0.451,2.81v0.115h-2.37c-0.281-0.159-0.253-1.297-0.38-2.478
			c-0.127-1.065-0.65-1.614-1.805-1.614h-1.778v4.092h-2.397V93.228z M132.232,98.04h2.13c1.072,0,1.65-0.561,1.65-1.411
			c0-0.879-0.522-1.455-1.58-1.455h-2.2V98.04z"/>
		<path style="fill:#eceae5;" d="M147.661,93.228h2.498l3.794,10.719h-2.539l-0.663-2.045h-3.808l-0.65,2.045h-2.411L147.661,93.228z M147.507,100.144
			h2.694l-0.636-2.003c-0.451-1.469-0.677-2.852-0.677-2.852h-0.028c0,0-0.367,1.801-0.706,2.852L147.507,100.144z"/>
		<path style="fill:#eceae5;" d="M159.694,90.706h1.411v15.464h-1.411V90.706z"/>
		<path style="fill:#eceae5;" d="M167.061,93.228h8.661v2.089h-3.132v8.631h-2.411v-8.631h-3.118V93.228z"/>
		<path style="fill:#eceae5;" d="M181.563,93.228h7.871v2.045h-5.474v2.134h4.739v1.944h-4.739v2.492h5.571v2.104h-7.968V93.228z"/>
		<path style="fill:#eceae5;" d="M198.619,93.228h2.496l3.795,10.719h-2.54l-0.663-2.045h-3.809l-0.647,2.045h-2.414L198.619,93.228z M198.462,100.144
			h2.694l-0.633-2.003c-0.451-1.469-0.677-2.852-0.677-2.852h-0.03c0,0-0.366,1.801-0.705,2.852L198.462,100.144z"/>
		<path style="fill:#eceae5;" d="M208.758,93.228h8.661v2.089h-3.132v8.631h-2.411v-8.631h-3.118V93.228z"/>
		<path style="fill:#eceae5;" d="M223.26,93.228h7.871v2.045h-5.474v2.134h4.739v1.944h-4.739v2.492h5.571v2.104h-7.968V93.228z"/>
		<path style="fill:#eceae5;" d="M237.283,93.228h4.993c2.045,0,3.583,1.109,3.583,3.069c0,1.254-0.605,2.162-1.946,2.609v0.042
			c1.043,0.332,1.508,0.922,1.649,2.075c0.198,1.456,0.113,2.665,0.451,2.81v0.115h-2.37c-0.281-0.159-0.253-1.297-0.38-2.478
			c-0.127-1.065-0.65-1.614-1.805-1.614h-1.778v4.092h-2.397V93.228z M239.68,98.04h2.13c1.071,0,1.651-0.561,1.651-1.411
			c0-0.879-0.523-1.455-1.58-1.455h-2.202V98.04z"/>
		<path style="fill:#eceae5;" d="M251.936,93.228h2.455l2.763,4.654c0.622,1.08,1.439,2.824,1.439,2.824h0.028c0,0-0.127-1.916-0.127-3.142v-4.336h2.298
			v10.719h-2.466l-2.739-4.596c-0.633-1.081-1.453-2.866-1.453-2.866h-0.028c0,0,0.127,1.93,0.127,3.154v4.308h-2.298V93.228z"/>
	</g>
	<g>
		<path style="fill:#eceae5;" d="M108.674,175.878h3.23l1.311,4.467c0.381,1.341,0.79,3.818,0.79,3.818h0.043c0,0,0.395-2.477,0.776-3.818l1.283-4.467
			h3.272v10.719h-2.214v-4.796c0-1.355,0.169-3.863,0.169-3.863h-0.028c0,0-0.451,2.291-0.819,3.559l-1.494,5.1h-1.975l-1.51-5.1
			c-0.367-1.268-0.819-3.559-0.819-3.559h-0.028c0,0,0.169,2.508,0.169,3.863v4.796h-2.158V175.878z"/>
		<path style="fill:#eceae5;" d="M125.272,181.281c0-3.213,2.002-5.589,5.191-5.589c3.173,0,5.177,2.376,5.177,5.589c0,3.199-2.004,5.578-5.177,5.578
			C127.275,186.859,125.272,184.481,125.272,181.281z M133.185,181.281c0-2.03-0.903-3.601-2.708-3.601
			c-1.819,0-2.751,1.572-2.751,3.601c0,2.018,0.932,3.559,2.751,3.559C132.282,184.841,133.185,183.3,133.185,181.281z"/>
		<path style="fill:#eceae5;" d="M141.013,183.213h2.426c0.127,1.167,0.875,1.687,2.229,1.687c0.93,0,1.805-0.377,1.805-1.254
			c0-0.936-0.889-1.139-2.412-1.498c-2.045-0.475-3.71-0.995-3.71-3.227c0-2.221,1.778-3.227,4.091-3.227s3.949,1.094,4.104,3.196
			h-2.355c-0.128-0.835-0.776-1.324-1.821-1.324c-0.987,0-1.65,0.433-1.65,1.11c0,0.835,0.903,1.02,2.553,1.397
			c1.891,0.43,3.626,1.065,3.626,3.329c0,2.218-1.834,3.458-4.232,3.458C142.861,186.859,141.083,185.532,141.013,183.213z"/>
		<path style="fill:#eceae5;" d="M155.851,175.878h7.871v2.047h-5.474v2.134h4.739v1.943h-4.739v2.494h5.571v2.103h-7.968V175.878z"/>
		<path style="fill:#eceae5;" d="M169.871,175.878h4.965c1.087,0,1.918,0.261,2.455,0.737c0.578,0.517,0.889,1.195,0.889,2.044
			c0,1.068-0.567,1.788-1.695,2.148v0.059c1.354,0.329,2.103,1.296,2.103,2.606c0,1.023-0.366,1.802-1.029,2.333
			c-0.622,0.52-1.481,0.793-2.595,0.793h-5.092V175.878z M174.498,180.188c0.817,0,1.368-0.405,1.368-1.198
			c0-0.776-0.523-1.209-1.34-1.209h-2.271v2.406H174.498z M174.71,184.669c0.479,0,0.859-0.146,1.115-0.391
			c0.239-0.231,0.38-0.576,0.38-0.978c0-0.936-0.663-1.397-1.539-1.397h-2.411v2.766H174.71z"/>
		<path style="fill:#eceae5;" d="M187.348,175.878h2.496l3.793,10.719H191.1l-0.663-2.044h-3.809l-0.647,2.044h-2.414L187.348,175.878z M187.191,182.794
			h2.694l-0.633-2.002c-0.451-1.47-0.677-2.853-0.677-2.853h-0.03c0,0-0.366,1.802-0.705,2.853L187.191,182.794z"/>
		<path style="fill:#eceae5;" d="M198.195,181.281c0-3.199,2.017-5.589,5.149-5.589c1.156,0,2.158,0.287,2.876,0.835c0.947,0.706,1.494,1.757,1.624,2.969
			h-2.4c-0.14-1.009-0.93-1.76-2.114-1.76c-1.792,0-2.681,1.515-2.681,3.545c0,2.047,1.043,3.531,2.694,3.531
			c1.283,0,2.072-0.852,2.185-1.959h2.411c-0.069,1.065-0.548,2.061-1.269,2.78c-0.79,0.793-1.861,1.209-3.327,1.209
			C200.281,186.842,198.195,184.481,198.195,181.281z"/>
		<path style="fill:#eceae5;" d="M213.767,175.878h2.397v1.76c0,0.978-0.055,1.959-0.085,2.536l3.922-4.296h2.879l-4.049,4.31l4.302,6.41h-2.807
			l-3.201-4.855l-0.961,1.023v3.832h-2.397V175.878z"/>
		<path style="fill:#eceae5;" d="M228.72,175.878h7.871v2.047h-5.474v2.134h4.739v1.943h-4.739v2.494h5.571v2.103h-7.968V175.878z"/>
	</g>
</g>
<g>
</g>
<g>
</g>
<g>
</g>
<g>
</g>
<g>
</g>
<g>
</g>
</svg>
