<?xml version="1.0" encoding="UTF-8" standalone="no"?>
<svg width="27px" height="27px" viewBox="0 0 27 27" version="1.1" xmlns="http://www.w3.org/2000/svg" xmlns:xlink="http://www.w3.org/1999/xlink">
    <!-- Generator: Sketch 3.7.2 (28276) - http://www.bohemiancoding.com/sketch -->
    <title>Combined Shape</title>
    <desc>Created with Sketch.</desc>
    <defs></defs>
    <g id="Page-1" stroke="none" stroke-width="1" fill="none" fill-rule="evenodd" fill-opacity="0.6">
        <g id="Artist" transform="translate(-24.000000, -843.000000)" fill="#FFFFFF">
            <g id="Group">
                <g id="Menu-closed">
                    <path d="M42.5701137,859.2324 L51,867.662287 L48.6622866,870 L40.2324002,861.570114 C38.548738,862.782923 36.4821424,863.497362 34.2486808,863.497362 C28.5884907,863.497362 24,858.908871 24,853.248681 C24,847.588491 28.5884907,843 34.2486808,843 C39.9088709,843 44.4973616,847.588491 44.4973616,853.248681 C44.4973616,855.482142 43.7829232,857.548738 42.5701137,859.2324 Z M34.2486808,860.852541 C38.4481767,860.852541 41.8525408,857.448177 41.8525408,853.248681 C41.8525408,849.049185 38.4481767,845.644821 34.2486808,845.644821 C30.0491849,845.644821 26.6448209,849.049185 26.6448209,853.248681 C26.6448209,857.448177 30.0491849,860.852541 34.2486808,860.852541 Z" id="Combined-Shape"></path>
                </g>
            </g>
        </g>
    </g>
</svg>