<?xml version="1.0" encoding="UTF-8" standalone="no"?>
<svg width="20px" height="20px" viewBox="0 0 20 20" version="1.1" xmlns="http://www.w3.org/2000/svg" xmlns:xlink="http://www.w3.org/1999/xlink">
    <!-- Generator: Sketch 3.7.2 (28276) - http://www.bohemiancoding.com/sketch -->
    <title>Page 1</title>
    <desc>Created with Sketch.</desc>
    <defs></defs>
    <g id="Page-1" stroke="none" stroke-width="1" fill="none" fill-rule="evenodd">
        <g id="På-tallriken" transform="translate(-48.000000, -857.000000)" fill="#FFFFFF">
            <path d="M50.5,857 C49.1248837,857 48,858.125116 48,859.5 L48,874.5 C48,875.875116 49.1248837,877 50.5,877 L58.0860465,877 L58.0860465,869.828837 L55.6913953,869.828837 L55.6913953,866.704651 L58.0860465,866.704651 L58.0860465,865.139535 C58.0860465,862.726977 59.8674419,860.837209 62.1418605,860.837209 L64.3493023,860.837209 L64.3493023,864.364884 L62.3744186,864.364884 C61.8574419,864.364884 61.705814,864.661628 61.705814,865.07186 L61.705814,866.704651 L64.3493023,866.704651 L64.3493023,869.828837 L61.705814,869.828837 L61.705814,877 L65.5,877 C66.8751163,877 68,875.875116 68,874.5 L68,859.5 C68,858.125116 66.8751163,857 65.5,857 L50.5,857 Z" id="Page-1"></path>
        </g>
    </g>
</svg>