<?xml version="1.0" encoding="UTF-8" standalone="no"?>
<svg width="22px" height="18px" viewBox="0 0 22 18" version="1.1" xmlns="http://www.w3.org/2000/svg" xmlns:xlink="http://www.w3.org/1999/xlink">
    <!-- Generator: Sketch 3.7.2 (28276) - http://www.bohemiancoding.com/sketch -->
    <title>Page 1</title>
    <desc>Created with Sketch.</desc>
    <defs>
        <polygon id="path-1" points="22.08 8.972076 22.08 17.944224 0 17.944224 0 8.972076 0 -7.19999998e-05 22.08 -7.19999998e-05 22.08 8.972076"></polygon>
    </defs>
    <g id="Page-1" stroke="none" stroke-width="1" fill="none" fill-rule="evenodd">
        <g id="dripicons-v2-by-amit-jakhu" transform="translate(-2724.000000, -2761.000000)">
            <g id="Page-1" transform="translate(2724.000000, 2761.000000)">
                <mask id="mask-2" fill="white">
                    <use xlink:href="#path-1"></use>
                </mask>
                <g id="Clip-2"></g>
                <path d="M22.08,2.123928 C21.26712,2.484408 20.39448,2.727768 19.47792,2.837448 C20.41368,2.276808 21.13176,1.388808 21.47016,0.331128 C20.59464,0.850008 19.62504,1.227288 18.59352,1.430328 C17.76696,0.549768 16.58952,-7.19999998e-05 15.2868,-7.19999998e-05 C12.78504,-7.19999998e-05 10.7568,2.028168 10.7568,4.529688 C10.7568,4.884888 10.79664,5.230488 10.87416,5.561928 C7.10952,5.373288 3.77064,3.569688 1.53696,0.828888 C1.14696,1.498248 0.92352,2.276328 0.92352,3.106488 C0.92352,4.678008 1.7232,6.064248 2.93856,6.876888 C2.19648,6.853368 1.4976,6.649848 0.8868,6.310488 C0.88632,6.329208 0.88632,6.348168 0.88632,6.367368 C0.88632,8.562168 2.44824,10.393128 4.52016,10.809048 C4.14048,10.912728 3.74016,10.968408 3.32664,10.968408 C3.03504,10.968408 2.7516,10.939848 2.47464,10.887048 C3.05112,12.686568 4.72464,13.996488 6.70632,14.032728 C5.15568,15.248088 3.20304,15.972168 1.08048,15.972168 C0.71496,15.972168 0.35448,15.950568 0,15.908328 C2.00448,17.194008 4.38504,17.944248 6.94416,17.944248 C15.276,17.944248 19.83288,11.041128 19.83288,5.054808 C19.83288,4.858968 19.82856,4.663368 19.81968,4.468728 C20.7048,3.830328 21.47256,3.032568 22.08,2.123928" id="Fill-1" fill="#252525" mask="url(#mask-2)"></path>
            </g>
        </g>
    </g>
</svg>