<?xml version="1.0" encoding="UTF-8" standalone="no"?>
<svg width="21px" height="16px" viewBox="0 0 21 16" version="1.1" xmlns="http://www.w3.org/2000/svg" xmlns:xlink="http://www.w3.org/1999/xlink">
    <!-- Generator: Sketch 3.7.2 (28276) - http://www.bohemiancoding.com/sketch -->
    <title>Page 1</title>
    <desc>Created with Sketch.</desc>
    <defs>
        <polygon id="path-1" points="2.05128204e-05 16 20.5128205 16 20.5128205 0.000102564103 2.05128204e-05 0.000102564103 2.05128204e-05 16"></polygon>
    </defs>
    <g id="Page-1" stroke="none" stroke-width="1" fill="none" fill-rule="evenodd">
        <g id="dripicons-v2-by-amit-jakhu" transform="translate(-2794.000000, -2710.000000)">
            <g id="Page-1" transform="translate(2794.000000, 2710.000000)">
                <mask id="mask-2" fill="white">
                    <use xlink:href="#path-1"></use>
                </mask>
                <g id="Clip-2"></g>
                <path d="M13.7046359,6.82041026 L13.7046359,10.461641 L20.512841,5.12748718 L13.7046359,0.000102564103 L13.7046359,3.21076923 C5.43591795,3.21076923 5.43591795,11.3847179 5.43591795,11.3847179 C7.77602051,7.54020513 9.21643077,6.82041026 13.7046359,6.82041026 L13.7046359,6.82041026 Z M15.3846359,13.9488205 L2.05130256,13.9488205 L2.05130256,4.71805128 L4.7126359,4.71805128 C4.7126359,4.71805128 5.41991795,3.79805128 6.93827692,2.66676923 L1.02566154,2.66676923 C0.459097436,2.66676923 2.05128204e-05,3.12584615 2.05128204e-05,3.69241026 L2.05128204e-05,14.9744615 C2.05128204e-05,15.5408205 0.459097436,16.0001026 1.02566154,16.0001026 L16.4102769,16.0001026 C16.976841,16.0001026 17.4359179,15.5408205 17.4359179,14.9744615 L17.4359179,11.1317949 L15.3846359,12.8191795 L15.3846359,13.9488205 Z" id="Fill-1" fill="#252525" mask="url(#mask-2)"></path>
            </g>
        </g>
    </g>
</svg>