<?xml version="1.0" encoding="UTF-8" standalone="no"?>
<svg width="21px" height="20px" viewBox="0 0 21 20" version="1.1" xmlns="http://www.w3.org/2000/svg" xmlns:xlink="http://www.w3.org/1999/xlink">
    <!-- Generator: Sketch 3.7.2 (28276) - http://www.bohemiancoding.com/sketch -->
    <title>view-apps</title>
    <desc>Created with Sketch.</desc>
    <defs></defs>
    <g id="Page-1" stroke="none" stroke-width="1" fill="none" fill-rule="evenodd">
        <g id="På-Scen---Grid" transform="translate(-1109.000000, -31.000000)" fill="#FFFFFF">
            <g id="Filter" transform="translate(1109.000000, 28.000000)">
                <path d="M20.0470219,22.359375 C20.4545455,21.953125 20.6896552,21.3875 20.6896552,20.8125 C20.6896552,20.2375 20.4545455,19.671875 20.0470219,19.265625 C19.6394984,18.859375 19.0752351,18.625 18.4952978,18.625 C17.9184953,18.625 17.3510972,18.859375 16.9435737,19.265625 C16.5360502,19.671875 16.3009404,20.2375 16.3009404,20.8125 C16.3009404,21.3875 16.5360502,21.953125 16.9435737,22.359375 C17.3510972,22.765625 17.9184953,23 18.4952978,23 C19.0721003,23 19.6394984,22.765625 20.0470219,22.359375 M11.8965517,22.359375 C12.3040752,21.953125 12.539185,21.3875 12.539185,20.8125 C12.539185,20.2375 12.3040752,19.671875 11.8965517,19.265625 C11.4890282,18.859375 10.9216301,18.625 10.3448276,18.625 C9.76802508,18.625 9.20062696,18.859375 8.79310345,19.265625 C8.38557994,19.671875 8.15047022,20.2375 8.15047022,20.8125 C8.15047022,21.3875 8.38557994,21.953125 8.79310345,22.359375 C9.20062696,22.765625 9.76802508,23 10.3448276,23 C10.9216301,23 11.4890282,22.765625 11.8965517,22.359375 M3.7460815,22.359375 C4.15360502,21.953125 4.38871473,21.3875 4.38871473,20.8125 C4.38871473,20.2375 4.15360502,19.671875 3.7460815,19.265625 C3.33855799,18.859375 2.77115987,18.625 2.19435737,18.625 C1.61755486,18.625 1.05015674,18.859375 0.642633229,19.265625 C0.235109718,19.671875 -5.68434189e-13,20.2375 -5.68434189e-13,20.8125 C-5.68434189e-13,21.3875 0.235109718,21.953125 0.642633229,22.359375 C1.05015674,22.765625 1.61755486,23 2.19435737,23 C2.77115987,23 3.33855799,22.765625 3.7460815,22.359375 M20.0470219,14.546875 C20.4545455,14.140625 20.6896552,13.575 20.6896552,13 C20.6896552,12.425 20.4545455,11.859375 20.0470219,11.453125 C19.6394984,11.046875 19.0721003,10.8125 18.4952978,10.8125 C17.9184953,10.8125 17.3510972,11.046875 16.9435737,11.453125 C16.5360502,11.859375 16.3009404,12.425 16.3009404,13 C16.3009404,13.575 16.5360502,14.140625 16.9435737,14.546875 C17.3510972,14.953125 17.9184953,15.1875 18.4952978,15.1875 C19.0721003,15.1875 19.6394984,14.953125 20.0470219,14.546875 M11.8965517,14.546875 C12.3040752,14.140625 12.539185,13.575 12.539185,13 C12.539185,12.425 12.3040752,11.859375 11.8965517,11.453125 C11.4890282,11.046875 10.9216301,10.8125 10.3448276,10.8125 C9.76802508,10.8125 9.20062696,11.046875 8.79310345,11.453125 C8.38557994,11.859375 8.15047022,12.425 8.15047022,13 C8.15047022,13.575 8.38557994,14.140625 8.79310345,14.546875 C9.20062696,14.953125 9.76802508,15.1875 10.3448276,15.1875 C10.9216301,15.1875 11.4890282,14.953125 11.8965517,14.546875 M3.7460815,14.546875 C4.15360502,14.140625 4.38871473,13.575 4.38871473,13 C4.38871473,12.425 4.15360502,11.859375 3.7460815,11.453125 C3.33855799,11.046875 2.77115987,10.8125 2.19435737,10.8125 C1.61755486,10.8125 1.05015674,11.046875 0.642633229,11.453125 C0.235109718,11.859375 -5.68434189e-13,12.425 -5.68434189e-13,13 C-5.68434189e-13,13.575 0.235109718,14.140625 0.642633229,14.546875 C1.05015674,14.953125 1.61755486,15.1875 2.19435737,15.1875 C2.77115987,15.1875 3.33855799,14.953125 3.7460815,14.546875 M20.0470219,6.734375 C20.4545455,6.328125 20.6896552,5.7625 20.6896552,5.1875 C20.6896552,4.6125 20.4545455,4.046875 20.0470219,3.640625 C19.6394984,3.234375 19.0721003,3 18.4952978,3 C17.9184953,3 17.3510972,3.234375 16.9435737,3.640625 C16.5360502,4.046875 16.3009404,4.6125 16.3009404,5.1875 C16.3009404,5.7625 16.5360502,6.328125 16.9435737,6.734375 C17.3510972,7.140625 17.9184953,7.375 18.4952978,7.375 C19.0721003,7.375 19.6394984,7.140625 20.0470219,6.734375 M11.8965517,6.734375 C12.3040752,6.328125 12.539185,5.7625 12.539185,5.1875 C12.539185,4.6125 12.3040752,4.046875 11.8965517,3.640625 C11.4890282,3.234375 10.9216301,3 10.3448276,3 C9.76802508,3 9.20062696,3.234375 8.79310345,3.640625 C8.38557994,4.046875 8.15047022,4.6125 8.15047022,5.1875 C8.15047022,5.7625 8.38557994,6.328125 8.79310345,6.734375 C9.20062696,7.140625 9.76802508,7.375 10.3448276,7.375 C10.9216301,7.375 11.4890282,7.140625 11.8965517,6.734375 M2.19435737,7.375 C1.61755486,7.375 1.05015674,7.140625 0.642633229,6.734375 C0.235109718,6.328125 -5.68434189e-13,5.7625 -5.68434189e-13,5.1875 C-5.68434189e-13,4.6125 0.235109718,4.046875 0.642633229,3.640625 C1.05015674,3.234375 1.61755486,3 2.19435737,3 C2.77115987,3 3.33855799,3.234375 3.7460815,3.640625 C4.15360502,4.046875 4.38871473,4.6125 4.38871473,5.1875 C4.38871473,5.7625 4.15360502,6.328125 3.7460815,6.734375 C3.33855799,7.140625 2.77115987,7.375 2.19435737,7.375" id="view-apps"></path>
            </g>
        </g>
    </g>
</svg>