<?xml version="1.0" encoding="UTF-8" standalone="no"?>
<svg width="18px" height="18px" viewBox="0 0 18 18" version="1.1" xmlns="http://www.w3.org/2000/svg" xmlns:xlink="http://www.w3.org/1999/xlink">
    <!-- Generator: Sketch 3.7.2 (28276) - http://www.bohemiancoding.com/sketch -->
    <title>Page 1</title>
    <desc>Created with Sketch.</desc>
    <defs></defs>
    <g id="Page-1" stroke="none" stroke-width="1" fill="none" fill-rule="evenodd">
        <g id="dripicons-v2-by-amit-jakhu" transform="translate(-2784.000000, -2745.000000)" fill="#252525">
            <path d="M2799.75,2745 L2786.25,2745 C2785.0124,2745 2784,2746.0126 2784,2747.25 L2784,2760.75 C2784,2761.9876 2785.0124,2763 2786.25,2763 L2793.07744,2763 L2793.07744,2756.54595 L2790.92226,2756.54595 L2790.92226,2753.73419 L2793.07744,2753.73419 L2793.07744,2752.32558 C2793.07744,2750.15428 2794.6807,2748.45349 2796.72767,2748.45349 L2798.71437,2748.45349 L2798.71437,2751.6284 L2796.93698,2751.6284 C2796.4717,2751.6284 2796.33523,2751.89547 2796.33523,2752.26467 L2796.33523,2753.73419 L2798.71437,2753.73419 L2798.71437,2756.54595 L2796.33523,2756.54595 L2796.33523,2763 L2799.75,2763 C2800.9876,2763 2802,2761.9876 2802,2760.75 L2802,2747.25 C2802,2746.0126 2800.9876,2745 2799.75,2745" id="Page-1"></path>
        </g>
    </g>
</svg>