<?xml version="1.0" encoding="UTF-8" standalone="no"?>
<svg width="18px" height="18px" viewBox="0 0 18 18" version="1.1" xmlns="http://www.w3.org/2000/svg" xmlns:xlink="http://www.w3.org/1999/xlink">
    <!-- Generator: Sketch 3.7.2 (28276) - http://www.bohemiancoding.com/sketch -->
    <title>Page 1</title>
    <desc>Created with Sketch.</desc>
    <defs></defs>
    <g id="Page-1" stroke="none" stroke-width="1" fill="none" fill-rule="evenodd">
        <g id="dripicons-v2-by-amit-jakhu" transform="translate(-2815.000000, -2781.000000)" fill="#252525">
            <path d="M2827.34884,2790 C2827.34884,2788.1504 2825.8494,2786.65116 2824,2786.65116 C2822.15019,2786.65116 2820.65116,2788.1504 2820.65116,2790 C2820.65116,2791.8496 2822.15019,2793.34884 2824,2793.34884 C2825.8494,2793.34884 2827.34884,2791.8496 2827.34884,2790 L2827.34884,2790 Z M2831.5623,2784.47442 C2831.5623,2784.75091 2831.33667,2784.97674 2831.06019,2784.97674 L2829.553,2784.97674 C2829.27714,2784.97674 2829.05067,2784.75091 2829.05067,2784.47442 L2829.05067,2782.96744 C2829.05067,2782.69095 2829.27714,2782.46512 2829.553,2782.46512 L2831.06019,2782.46512 C2831.33667,2782.46512 2831.5623,2782.69095 2831.5623,2782.96744 L2831.5623,2784.47442 Z M2830.1876,2781 L2817.8124,2781 C2816.25833,2781 2815,2782.25958 2815,2783.8126 L2815,2786.86047 L2819.55609,2786.86047 C2820.5417,2785.46798 2822.16421,2784.55814 2824,2784.55814 C2825.83558,2784.55814 2827.45788,2785.46798 2828.44328,2786.86047 L2833,2786.86047 L2833,2783.8126 C2833,2782.25958 2831.74,2781 2830.1876,2781 L2830.1876,2781 Z M2829.44186,2790 C2829.44186,2793.00579 2827.00495,2795.44186 2824,2795.44186 C2820.99421,2795.44186 2818.55814,2793.00579 2818.55814,2790 C2818.55814,2789.64188 2818.59372,2789.29214 2818.65944,2788.95349 L2815,2788.95349 L2815,2796.1874 C2815,2797.74084 2816.25833,2799 2817.8124,2799 L2830.1876,2799 C2831.74,2799 2833,2797.74084 2833,2796.1874 L2833,2788.95349 L2829.34014,2788.95349 C2829.40628,2789.29214 2829.44186,2789.64188 2829.44186,2790 L2829.44186,2790 Z" id="Page-1"></path>
        </g>
    </g>
</svg>