<?xml version="1.0" encoding="UTF-8"?>
<svg width="52px" height="92px" viewBox="0 0 52 92" version="1.1" xmlns="http://www.w3.org/2000/svg" xmlns:xlink="http://www.w3.org/1999/xlink">
    <!-- Generator: Sketch 42 (36781) - http://www.bohemiancoding.com/sketch -->
    <title>device-mobile</title>
    <desc>Created with Sketch.</desc>
    <defs></defs>
    <g id="Page-1" stroke="none" stroke-width="1" fill="none" fill-rule="evenodd">
        <g id="device-mobile" fill-rule="nonzero" fill="#333333">
            <g id="Page-1">
                <g id="dripicons-v2-by-amit-jakhu">
                    <path d="M8.003,84 L44.003,84 L44.003,67 L8.003,67 L8.003,84 Z M8.003,61 L44.003,61 L44.003,8 L8.003,8 L8.003,61 Z M52.003,7.6 L52.003,84.4 C52.003,88.591 48.594,92 44.403,92 L7.603,92 C3.412,92 0.003,88.591 0.003,84.4 L0.003,7.6 C0.003,3.409 3.412,0 7.603,0 L44.403,0 C48.594,0 52.003,3.409 52.003,7.6 L52.003,7.6 Z M32.851,76 C32.851,77.657 31.508,79 29.851,79 L22.153,79 C20.496,79 19.153,77.657 19.153,76 C19.153,74.343 20.496,73 22.153,73 L29.851,73 C31.508,73 32.851,74.343 32.851,76 L32.851,76 Z" id="device-mobile"></path>
                </g>
            </g>
        </g>
    </g>
</svg>