<?xml version="1.0" encoding="UTF-8" standalone="no"?>
<svg width="14px" height="20px" viewBox="0 0 14 20" version="1.1" xmlns="http://www.w3.org/2000/svg" xmlns:xlink="http://www.w3.org/1999/xlink">
    <!-- Generator: Sketch 3.7.2 (28276) - http://www.bohemiancoding.com/sketch -->
    <title>Group 2</title>
    <desc>Created with Sketch.</desc>
    <defs></defs>
    <g id="Page-1" stroke="none" stroke-width="1" fill="none" fill-rule="evenodd">
        <g id="På-Scen--Lista" transform="translate(-401.000000, -688.000000)" fill="#FFFFFF">
            <g id="Artist-5" transform="translate(110.000000, 625.000000)">
                <g id="Group-3" transform="translate(110.000000, 60.000000)">
                    <g id="Group-2" transform="translate(181.000000, 3.000000)">
                        <g id="Group">
                            <path d="M7.00021212,9.26065217 C5.95678788,9.26065217 5.10809091,8.36608696 5.10809091,7.26652174 C5.10809091,6.16695652 5.95678788,5.2723913 7.00021212,5.2723913 C8.04363636,5.2723913 8.89275758,6.16695652 8.89275758,7.26652174 C8.89275758,8.36608696 8.04363636,9.26065217 7.00021212,9.26065217 M7.00021212,3.75065217 C5.13821212,3.75065217 3.62324242,5.32782609 3.62324242,7.26652174 C3.62324242,9.20521739 5.13821212,10.7823913 7.00021212,10.7823913 C8.86242424,10.7823913 10.3776061,9.20521739 10.3776061,7.26652174 C10.3776061,5.32782609 8.86242424,3.75065217 7.00021212,3.75065217 M6.99936364,17.8556522 C6.426,17.2034783 5.5200303,16.1165217 4.61766667,14.805 C2.70687879,12.0278261 1.6969697,9.53804348 1.6969697,7.60478261 C1.6969697,2.16217391 5.75590909,1.73913043 7,1.73913043 C11.9205758,1.73913043 12.3030303,6.22869565 12.3030303,7.60478261 C12.3030303,11.4323913 8.50330303,16.1417391 6.99936364,17.8556522 M11.7619091,1.72565217 C10.5434848,0.613043478 8.85224242,0 7,0 C5.14775758,0 3.45651515,0.613043478 2.23809091,1.72565217 C0.773818182,3.06304348 0,5.09586957 0,7.60478261 C0,13.0695652 6.13645455,19.4730435 6.39757576,19.7428261 C6.55687879,19.9076087 6.77387879,20 7,20 C7.22612121,20 7.44312121,19.9076087 7.60242424,19.7428261 C7.86354545,19.4730435 14,13.0695652 14,7.60478261 C14,5.09586957 13.2261818,3.06304348 11.7619091,1.72565217" id="location"></path>
                            <path d="M6.11376953,1.11425781 L4.21972656,1.67041016 L2.36181641,2.60107422 L1.68066406,4.02783203 C1.68066406,4.02783203 1.18505859,5.70019531 1.18505859,6.53857422 C1.18505859,7.37695313 1,8.09033203 1,9.14208984 C1,10.1938477 1.30615234,10.8461914 1.83398438,11.7128906 C2.36181641,12.5795898 3.40917969,13.3857422 3.40917969,14.1591797 C3.40917969,14.9326172 4.67041016,16.4155273 5.39208984,16.4155273 C6.11376953,16.4155273 6.75830078,18.3095703 6.75830078,18.3095703 L9.35742188,15.7431641 L12.0444336,11.3833008 L12.9111328,7.45898437 L12.5078125,3.78027344 L10.5898438,1.55615234 L8.79248047,1 L6.11376953,1.11425781 Z M7,10 C8.65685425,10 10,8.65685425 10,7 C10,5.34314575 8.65685425,4 7,4 C5.34314575,4 4,5.34314575 4,7 C4,8.65685425 5.34314575,10 7,10 Z" id="Combined-Shape"></path>
                        </g>
                    </g>
                </g>
            </g>
        </g>
    </g>
</svg>