<?xml version="1.0" encoding="UTF-8" standalone="no"?>
<svg width="18px" height="17px" viewBox="0 0 18 17" version="1.1" xmlns="http://www.w3.org/2000/svg" xmlns:xlink="http://www.w3.org/1999/xlink">
    <!-- Generator: Sketch 3.7.2 (28276) - http://www.bohemiancoding.com/sketch -->
    <title>calendar</title>
    <desc>Created with Sketch.</desc>
    <defs></defs>
    <g id="Page-1" stroke="none" stroke-width="1" fill="none" fill-rule="evenodd">
        <g id="dripicons-v2-by-amit-jakhu" transform="translate(-2894.000000, -2834.000000)" fill="#FFFFFF">
            <path d="M2901.76504,2836.93478 L2904.23496,2836.93478 C2904.66715,2836.93478 2905.01757,2836.58437 2905.01757,2836.15217 C2905.01757,2835.71998 2904.66715,2835.36957 2904.23496,2835.36957 L2901.76504,2835.36957 C2901.33285,2835.36957 2900.98243,2835.71998 2900.98243,2836.15217 C2900.98243,2836.58437 2901.33285,2836.93478 2901.76504,2836.93478 L2901.76504,2836.93478 Z M2895.56522,2848.67391 L2910.43478,2848.67391 L2910.43478,2841.63043 L2895.56522,2841.63043 L2895.56522,2848.67391 Z M2912,2836.22457 L2912,2849.45652 C2912,2849.88872 2911.64959,2850.23913 2911.21739,2850.23913 L2894.78261,2850.23913 C2894.35041,2850.23913 2894,2849.88872 2894,2849.45652 L2894,2836.22457 C2894,2835.79237 2894.35041,2835.36957 2894.78261,2835.36957 L2896.61176,2835.36957 C2897.04396,2835.36957 2897.39437,2835.71998 2897.39437,2836.15217 C2897.39437,2836.58437 2897.04396,2836.93478 2896.61176,2836.93478 L2895.56522,2836.93478 L2895.56522,2840.26087 L2910.43478,2840.26087 L2910.43478,2836.93478 L2909.38804,2836.93478 C2908.95585,2836.93478 2908.60543,2836.58437 2908.60543,2836.15217 C2908.60543,2835.71998 2908.95585,2835.36957 2909.38804,2835.36957 L2911.21739,2835.36957 C2911.64959,2835.36957 2912,2835.79237 2912,2836.22457 L2912,2836.22457 Z M2906.71739,2838.46204 C2907.25759,2838.46204 2907.69565,2838.02398 2907.69565,2837.48378 L2907.69565,2834.97826 C2907.69565,2834.43807 2907.25759,2834 2906.71739,2834 C2906.177,2834 2905.73913,2834.43807 2905.73913,2834.97826 L2905.73913,2837.48378 C2905.73913,2838.02398 2906.177,2838.46204 2906.71739,2838.46204 L2906.71739,2838.46204 Z M2898.30435,2837.48378 L2898.30435,2834.97826 C2898.30435,2834.43807 2898.74222,2834 2899.28261,2834 C2899.8228,2834 2900.26087,2834.43807 2900.26087,2834.97826 L2900.26087,2837.48378 C2900.26087,2838.02398 2899.8228,2838.46204 2899.28261,2838.46204 C2898.74222,2838.46204 2898.30435,2838.02398 2898.30435,2837.48378 L2898.30435,2837.48378 Z" id="calendar"></path>
        </g>
    </g>
</svg>