<?xml version="1.0" encoding="UTF-8" standalone="no"?>
<svg width="13px" height="8px" viewBox="0 0 13 8" version="1.1" xmlns="http://www.w3.org/2000/svg" xmlns:xlink="http://www.w3.org/1999/xlink">
    <!-- Generator: Sketch 3.7.2 (28276) - http://www.bohemiancoding.com/sketch -->
    <title>Fill 1</title>
    <desc>Created with Sketch.</desc>
    <defs></defs>
    <g id="Page-1" stroke="none" stroke-width="1" fill="none" fill-rule="evenodd">
        <g id="dripicons-v2-by-amit-jakhu" transform="translate(-2737.000000, -2796.000000)" fill="#252525">
            <path d="M2742.03141,2794.32711 C2742.46341,2794.74877 2746.68864,2799.18504 2746.68864,2799.18504 C2746.91933,2799.40993 2747.03457,2799.70476 2747.03457,2800 C2747.03457,2800.29524 2746.91933,2800.59007 2746.68864,2800.81496 C2746.68864,2800.81496 2742.46341,2805.25123 2742.03141,2805.67289 C2741.599,2806.09454 2740.82148,2806.1233 2740.35969,2805.67289 C2739.89852,2805.22309 2739.8619,2804.59496 2740.3601,2804.04296 L2744.23609,2800 L2740.3601,2795.95725 C2739.8619,2795.40504 2739.89852,2794.77711 2740.35969,2794.32711 C2740.82148,2793.8767 2741.599,2793.90546 2742.03141,2794.32711" id="Fill-1" transform="translate(2743.517286, 2800.000000) rotate(-270.000000) translate(-2743.517286, -2800.000000) "></path>
        </g>
    </g>
</svg>