<?xml version="1.0" encoding="UTF-8" standalone="no"?>
<svg width="20px" height="20px" viewBox="0 0 20 20" version="1.1" xmlns="http://www.w3.org/2000/svg" xmlns:xlink="http://www.w3.org/1999/xlink">
    <!-- Generator: Sketch 3.7.2 (28276) - http://www.bohemiancoding.com/sketch -->
    <title>Page 1</title>
    <desc>Created with Sketch.</desc>
    <defs>
        <polygon id="path-1" points="20 19.9999204 20 0 0 0 0 19.9999204"></polygon>
    </defs>
    <g id="Page-1" stroke="none" stroke-width="1" fill="none" fill-rule="evenodd">
        <g id="dripicons-v2-by-amit-jakhu" transform="translate(-2724.000000, -2723.000000)">
            <g id="Page-1" transform="translate(2724.000000, 2723.000000)">
                <mask id="mask-2" fill="white">
                    <use xlink:href="#path-1"></use>
                </mask>
                <g id="Clip-2"></g>
                <path d="M7.39208333,5.593375 L7.3925,12.44525 C7.01916667,12.3675417 6.58520833,12.3967083 6.15479167,12.5565 C5.18625,12.9162917 5.05291667,13.7915 5.30958333,14.5110833 C5.56645833,15.2310833 6.53229167,15.7306667 7.50083333,15.370875 C8.32354167,15.06525 8.86166667,14.1798333 8.84833333,13.5419167 L8.84833333,7.88191667 L12.53125,6.94233333 L12.53125,11.2904583 C12.158125,11.21275 11.7239583,11.2419167 11.2935417,11.4017083 C10.325,11.7615 10.1916667,12.6367083 10.4485417,13.3562917 C10.7052083,14.0762917 11.67125,14.575875 12.6395833,14.2160833 C13.4622917,13.9104583 14.0004167,13.0250417 13.9870833,12.387125 L13.9870833,4.26545833 L7.39208333,5.593375 Z M10.1054167,17.8942083 C5.745625,17.9523333 2.16395833,14.46525 2.10583333,10.1050417 C2.04770833,5.74545833 5.53479167,2.164 9.894375,2.105875 C14.2541667,2.04754167 17.8354167,5.53441667 17.8939583,9.89441667 C17.9520833,14.2544167 14.465,17.8356667 10.1054167,17.8942083 L10.1054167,17.8942083 Z M0.000833333333,10.1335833 C0.0745833333,15.655875 4.61104167,20.0731667 10.1335417,19.999 C15.655625,19.9254583 20.073125,15.389 19.9991667,9.86629167 C19.9254167,4.34379167 15.3879167,-0.0730833333 9.86625,0.000875 C4.34375,0.074625 -0.073125,4.61108333 0.000833333333,10.1335833 Z" id="Fill-1" fill="#252525" mask="url(#mask-2)"></path>
            </g>
        </g>
    </g>
</svg>