<?xml version="1.0" encoding="UTF-8" standalone="no"?>
<svg width="22px" height="20px" viewBox="0 0 22 20" version="1.1" xmlns="http://www.w3.org/2000/svg" xmlns:xlink="http://www.w3.org/1999/xlink">
    <!-- Generator: Sketch 3.7.2 (28276) - http://www.bohemiancoding.com/sketch -->
    <title>heart</title>
    <desc>Created with Sketch.</desc>
    <defs></defs>
    <g id="Page-1" stroke="none" stroke-width="1" fill="none" fill-rule="evenodd">
        <g id="dripicons-v2-by-amit-jakhu" transform="translate(-730.000000, -1800.000000)" fill="#FFFFFF">
            <path d="M747.197036,1808.22861 C747.389343,1808.42092 747.497036,1808.68502 747.497036,1808.95425 C747.497036,1809.22348 747.389343,1809.49015 747.197036,1809.67989 C747.007292,1809.8722 746.743189,1809.97989 746.471394,1809.97989 C746.202164,1809.97989 745.938061,1809.8722 745.748574,1809.67989 C745.556266,1809.49015 745.445753,1809.22605 745.445753,1808.95425 C745.445753,1808.68502 745.556266,1808.42092 745.748574,1808.22861 C745.938061,1808.03887 746.202164,1807.92861 746.471394,1807.92861 C746.743189,1807.92861 747.007292,1808.03887 747.197036,1808.22861 M748.435241,1806.73861 C748.468061,1807.23323 748.093702,1807.66066 747.599087,1807.69323 C747.579087,1807.69451 747.559087,1807.69528 747.539087,1807.69528 C747.070369,1807.69528 746.675753,1807.33143 746.644471,1806.85682 C746.548318,1805.40246 745.597805,1805.16374 745.408061,1805.13066 C744.917036,1805.06348 744.581138,1804.61194 744.648318,1804.12092 C744.715753,1803.62964 745.175753,1803.28887 745.666779,1803.35477 C746.554984,1803.47656 748.277036,1804.34041 748.435241,1806.73861 M748.685753,1809.70836 C745.362677,1813.43605 742.335753,1816.34323 741.025753,1817.56733 C739.716523,1816.34425 736.692164,1813.43989 733.365753,1809.70836 C732.023189,1808.20246 731.689087,1806.36579 732.449343,1804.66938 C733.154215,1803.09605 734.664728,1802.03887 736.207805,1802.03887 C739.267805,1802.03887 739.960369,1804.32759 740.031138,1804.59579 C740.144471,1805.0481 740.550625,1805.3722 741.017805,1805.3722 L741.026779,1805.3722 C741.492677,1805.3722 741.901651,1805.04836 742.020112,1804.59707 C742.088574,1804.33579 742.778318,1802.04169 745.843959,1802.04169 C747.386779,1802.04169 748.897292,1803.09733 749.60242,1804.67066 C750.36242,1806.36707 750.028574,1808.20246 748.685753,1809.70836 M751.473959,1803.83041 C750.428061,1801.49605 748.218061,1799.98759 745.843959,1799.98759 C743.471394,1799.98759 741.93242,1801.03118 741.025753,1802.16169 C740.119087,1801.03118 738.580112,1799.98759 736.207805,1799.98759 C733.833702,1799.98759 731.623702,1801.49605 730.577548,1803.83041 C729.488318,1806.26118 729.958318,1808.96861 731.834728,1811.07348 C736.329343,1816.11553 740.301394,1819.69015 740.340882,1819.72553 C740.535753,1819.90041 740.780882,1819.98759 741.025753,1819.98759 C741.270882,1819.98759 741.515753,1819.90041 741.710625,1819.72553 C741.750112,1819.69015 745.722164,1816.11553 750.216779,1811.07348 C752.093189,1808.96861 752.563446,1806.26118 751.473959,1803.83041" id="heart"></path>
        </g>
    </g>
</svg>