<?xml version="1.0" encoding="UTF-8" standalone="no"?>
<svg width="16px" height="16px" viewBox="0 0 16 16" version="1.1" xmlns="http://www.w3.org/2000/svg" xmlns:xlink="http://www.w3.org/1999/xlink">
    <!-- Generator: Sketch 3.7.2 (28276) - http://www.bohemiancoding.com/sketch -->
    <title>cross</title>
    <desc>Created with Sketch.</desc>
    <defs></defs>
    <g id="Page-1" stroke="none" stroke-width="1" fill="none" fill-rule="evenodd">
        <g id="dripicons-v2-by-amit-jakhu" transform="translate(-2902.000000, -2799.000000)" fill="#FFFFFF">
            <path d="M2917.59453,2812.63636 C2918.13516,2813.17698 2918.13516,2814.05391 2917.59453,2814.59453 C2917.32407,2814.865 2916.96991,2815.00008 2916.61545,2815.00008 C2916.26098,2815.00008 2915.90683,2814.865 2915.63636,2814.59453 L2910,2808.95817 L2904.36364,2814.59453 C2904.09317,2814.865 2903.73902,2815.00008 2903.38455,2815.00008 C2903.03009,2815.00008 2902.67593,2814.865 2902.40547,2814.59453 C2901.86484,2814.05391 2901.86484,2813.17698 2902.40547,2812.63636 L2908.04183,2807 L2902.40547,2801.36364 C2901.86484,2800.82302 2901.86484,2799.94609 2902.40547,2799.40547 C2902.94639,2798.86484 2903.82271,2798.86484 2904.36364,2799.40547 L2910,2805.04183 L2915.63636,2799.40547 C2916.17729,2798.86484 2917.05361,2798.86484 2917.59453,2799.40547 C2918.13516,2799.94609 2918.13516,2800.82302 2917.59453,2801.36364 L2911.95817,2807 L2917.59453,2812.63636 Z" id="cross"></path>
        </g>
    </g>
</svg>