<?xml version="1.0" encoding="UTF-8" standalone="no"?>
<svg width="20px" height="20px" viewBox="0 0 20 20" version="1.1" xmlns="http://www.w3.org/2000/svg" xmlns:xlink="http://www.w3.org/1999/xlink">
    <!-- Generator: Sketch 3.7.2 (28276) - http://www.bohemiancoding.com/sketch -->
    <title>clock</title>
    <desc>Created with Sketch.</desc>
    <defs></defs>
    <g id="Page-1" stroke="none" stroke-width="1" fill="none" fill-rule="evenodd">
        <g id="På-Scen--Lista" transform="translate(-220.000000, -819.000000)" fill="#FFFFFF">
            <g id="Artist-6" transform="translate(70.000000, 739.000000)">
                <g id="Group-4" transform="translate(150.000000, 17.000000)">
                    <g id="Group-3" transform="translate(0.000000, 60.000000)">
                        <path d="M13.3193478,15.0893478 C13.658913,15.428913 13.658913,15.9795652 13.3193478,16.3191304 C13.1495652,16.488913 12.9271739,16.573913 12.7045652,16.573913 C12.4819565,16.573913 12.2595652,16.488913 12.0897826,16.3191304 L9.38521739,13.615 C9.22217391,13.4519565 9.13043478,13.2306522 9.13043478,13 L9.13043478,7.8176087 C9.13043478,7.3373913 9.51978261,6.94804348 10,6.94804348 C10.4802174,6.94804348 10.8695652,7.3373913 10.8695652,7.8176087 L10.8695652,12.6397826 L13.3193478,15.0893478 Z M10,21.2608696 C5.445,21.2608696 1.73913043,17.555 1.73913043,13 C1.73913043,8.445 5.445,4.73913043 10,4.73913043 C14.5552174,4.73913043 18.2608696,8.445 18.2608696,13 C18.2608696,17.555 14.5552174,21.2608696 10,21.2608696 L10,21.2608696 Z M10,3 C4.48608696,3 0,7.48608696 0,13 C0,18.513913 4.48608696,23 10,23 C15.5141304,23 20,18.513913 20,13 C20,7.48608696 15.5141304,3 10,3 L10,3 Z" id="clock"></path>
                    </g>
                </g>
            </g>
        </g>
    </g>
</svg>