<?xml version="1.0" encoding="UTF-8" standalone="no"?>
<svg width="20px" height="20px" viewBox="0 0 20 20" version="1.1" xmlns="http://www.w3.org/2000/svg" xmlns:xlink="http://www.w3.org/1999/xlink">
    <!-- Generator: Sketch 3.7.2 (28276) - http://www.bohemiancoding.com/sketch -->
    <title>Page 1</title>
    <desc>Created with Sketch.</desc>
    <defs></defs>
    <g id="Page-1" stroke="none" stroke-width="1" fill="none" fill-rule="evenodd">
        <g id="På-tallriken" transform="translate(-126.000000, -857.000000)" fill="#FFFFFF">
            <path d="M139.72093,867 C139.72093,864.944884 138.054884,863.27907 136,863.27907 C133.944651,863.27907 132.27907,864.944884 132.27907,867 C132.27907,869.055116 133.944651,870.72093 136,870.72093 C138.054884,870.72093 139.72093,869.055116 139.72093,867 L139.72093,867 Z M144.402558,860.860465 C144.402558,861.167674 144.15186,861.418605 143.844651,861.418605 L142.17,861.418605 C141.863488,861.418605 141.61186,861.167674 141.61186,860.860465 L141.61186,859.186047 C141.61186,858.878837 141.863488,858.627907 142.17,858.627907 L143.844651,858.627907 C144.15186,858.627907 144.402558,858.878837 144.402558,859.186047 L144.402558,860.860465 Z M142.875116,857 L129.124884,857 C127.39814,857 126,858.399535 126,860.125116 L126,863.511628 L131.062326,863.511628 C132.157442,861.964419 133.960233,860.953488 136,860.953488 C138.039535,860.953488 139.842093,861.964419 140.936977,863.511628 L146,863.511628 L146,860.125116 C146,858.399535 144.6,857 142.875116,857 L142.875116,857 Z M142.046512,867 C142.046512,870.339767 139.338837,873.046512 136,873.046512 C132.660233,873.046512 129.953488,870.339767 129.953488,867 C129.953488,866.602093 129.993023,866.213488 130.066047,865.837209 L126,865.837209 L126,873.874884 C126,875.60093 127.39814,877 129.124884,877 L142.875116,877 C144.6,877 146,875.60093 146,873.874884 L146,865.837209 L141.933488,865.837209 C142.006977,866.213488 142.046512,866.602093 142.046512,867 L142.046512,867 Z" id="Page-1"></path>
        </g>
    </g>
</svg>