<?xml version="1.0" encoding="UTF-8" standalone="no"?>
<svg width="27px" height="27px" viewBox="0 0 27 27" version="1.1" xmlns="http://www.w3.org/2000/svg" xmlns:xlink="http://www.w3.org/1999/xlink">
    <!-- Generator: Sketch 3.7.2 (28276) - http://www.bohemiancoding.com/sketch -->
    <title>Combined Shape</title>
    <desc>Created with Sketch.</desc>
    <defs></defs>
    <g id="Page-1" stroke="none" stroke-width="1" fill="none" fill-rule="evenodd">
        <g id="Jazzbrunch" transform="translate(-381.000000, -843.000000)" fill="#FFFFFF">
            <g id="Group-2">
                <g id="Menu-open">
                    <g id="Sidebar">
                        <path d="M399.570114,859.2324 L408,867.662287 L405.662287,870 L397.2324,861.570114 C395.548738,862.782923 393.482142,863.497362 391.248681,863.497362 C385.588491,863.497362 381,858.908871 381,853.248681 C381,847.588491 385.588491,843 391.248681,843 C396.908871,843 401.497362,847.588491 401.497362,853.248681 C401.497362,855.482142 400.782923,857.548738 399.570114,859.2324 Z M391.248681,860.852541 C395.448177,860.852541 398.852541,857.448177 398.852541,853.248681 C398.852541,849.049185 395.448177,845.644821 391.248681,845.644821 C387.049185,845.644821 383.644821,849.049185 383.644821,853.248681 C383.644821,857.448177 387.049185,860.852541 391.248681,860.852541 Z" id="Combined-Shape"></path>
                    </g>
                </g>
            </g>
        </g>
    </g>
</svg>