<?xml version="1.0" encoding="UTF-8" standalone="no"?>
<svg width="25px" height="20px" viewBox="0 0 25 20" version="1.1" xmlns="http://www.w3.org/2000/svg" xmlns:xlink="http://www.w3.org/1999/xlink">
    <!-- Generator: Sketch 3.7.2 (28276) - http://www.bohemiancoding.com/sketch -->
    <title>Page 1</title>
    <desc>Created with Sketch.</desc>
    <defs>
        <polygon id="path-1" points="24.5333333 9.96897333 24.5333333 19.9380267 0 19.9380267 0 9.96897333 0 -8e-05 24.5333333 -8e-05 24.5333333 9.96897333"></polygon>
    </defs>
    <g id="Page-1" stroke="none" stroke-width="1" fill="none" fill-rule="evenodd">
        <g id="På-tallriken" transform="translate(-84.000000, -857.000000)">
            <g id="Page-1" transform="translate(84.000000, 857.000000)">
                <mask id="mask-2" fill="white">
                    <use xlink:href="#path-1"></use>
                </mask>
                <g id="Clip-2"></g>
                <path d="M21.6421333,3.15272 C22.6818667,2.52978667 23.4797333,1.54312 23.8557333,0.36792 C22.8829333,0.944453333 21.8056,1.36365333 20.6594667,1.58925333 C19.7410667,0.610853333 18.4328,-8e-05 16.9853333,-8e-05 C14.2056,-8e-05 11.952,2.25352 11.952,5.03298667 C11.952,5.42765333 11.9962667,5.81165333 12.0824,6.17992 C7.89946667,5.97032 4.1896,3.96632 1.70773333,0.920986667 C1.2744,1.66472 1.02613333,2.52925333 1.02613333,3.45165333 C1.02613333,5.19778667 1.91466667,6.73805333 3.26506667,7.64098667 C2.44053333,7.61485333 1.664,7.38872 0.985333333,7.01165333 C0.9848,7.03245333 0.9848,7.05352 0.9848,7.07485333 C0.9848,9.51352 2.72026667,11.54792 5.0224,12.0100533 C4.60053333,12.1252533 4.15573333,12.18712 3.69626667,12.18712 C3.37226667,12.18712 3.05733333,12.1553867 2.7496,12.09672 C3.39013333,14.0961867 5.2496,15.5516533 7.45146667,15.59192 C5.72853333,16.94232 3.55893333,17.7468533 1.20053333,17.7468533 C0.7944,17.7468533 0.393866667,17.7228533 0,17.67592 C2.2272,19.1044533 4.87226667,19.9380533 7.71573333,19.9380533 C16.9733333,19.9380533 22.0365333,12.26792 22.0365333,5.61645333 C22.0365333,5.39885333 22.0317333,5.18152 22.0218667,4.96525333 C23.0053333,4.25592 23.8584,3.36952 24.5333333,2.35992 C23.6301333,2.76045333 22.6605333,3.03085333 21.6421333,3.15272 Z" id="Fill-1" fill="#FFFFFF" mask="url(#mask-2)"></path>
            </g>
        </g>
    </g>
</svg>