<?xml version="1.0" encoding="UTF-8" standalone="no"?>
<svg width="20px" height="20px" viewBox="0 0 20 20" version="1.1" xmlns="http://www.w3.org/2000/svg" xmlns:xlink="http://www.w3.org/1999/xlink">
    <!-- Generator: Sketch 3.7.2 (28276) - http://www.bohemiancoding.com/sketch -->
    <title>Shape</title>
    <desc>Created with Sketch.</desc>
    <defs></defs>
    <g id="Page-1" stroke="none" stroke-width="1" fill="none" fill-rule="evenodd">
        <g id="popup" fill="#FFFFFF">
            <path d="M17.5,0 L7.47375,0 C6.1,0 5,1.1 5,2.475 L5,12.5 C5,13.875 6.125,15 7.5,15 L17.5,15 C18.875,15 20,13.875 20,12.5 L20,2.5 C20,1.125 18.875,0 17.5,0 L17.5,0 Z M17.5,12.5 L7.5,12.5 L7.5,2.5 L17.5,2.5 L17.5,12.5 L17.5,12.5 Z M2.5,10 L0,10 L0,17.5 C0,18.875 1.125,20 2.5,20 L10,20 L10,17.5 L2.5,17.5 L2.5,10 L2.5,10 Z" id="Shape"></path>
        </g>
    </g>
</svg>