<?xml version="1.0" encoding="UTF-8" standalone="no"?>
<svg width="23px" height="21px" viewBox="0 0 23 21" version="1.1" xmlns="http://www.w3.org/2000/svg" xmlns:xlink="http://www.w3.org/1999/xlink">
    <!-- Generator: Sketch 3.7.2 (28276) - http://www.bohemiancoding.com/sketch -->
    <title>align-left</title>
    <desc>Created with Sketch.</desc>
    <defs></defs>
    <g id="Page-1" stroke="none" stroke-width="1" fill="none" fill-rule="evenodd">
        <g id="På-Scen---Grid" transform="translate(-1218.000000, -31.000000)" fill="#FFFFFF">
            <g id="Filter" transform="translate(1109.000000, 28.000000)">
                <path d="M130.626128,22.2471264 C130.626128,21.6218779 130.119193,21.1149425 129.493944,21.1149425 L110.208323,21.1149425 C109.583075,21.1149425 109.076139,21.6218779 109.076139,22.2471264 C109.076139,22.872375 109.583075,23.3793103 110.208323,23.3793103 L129.493944,23.3793103 C130.119193,23.3793103 130.626128,22.872375 130.626128,22.2471264 M126.436198,16.2151336 C126.436198,15.5898851 125.929263,15.0829497 125.304014,15.0829497 L110.132184,15.0829497 C109.506935,15.0829497 109,15.5898851 109,16.2151336 C109,16.8403822 109.506935,17.3473175 110.132184,17.3473175 L125.304014,17.3473175 C125.929263,17.3473175 126.436198,16.8403822 126.436198,16.2151336 M122.979924,10.1825747 C122.979924,9.55732615 122.472989,9.0503908 121.84774,9.0503908 L110.132184,9.0503908 C109.506935,9.0503908 109,9.55732615 109,10.1825747 C109,10.8078233 109.506935,11.3147586 110.132184,11.3147586 L121.84774,11.3147586 C122.472989,11.3147586 122.979924,10.8078233 122.979924,10.1825747 M130.511494,5.26436782 L110.132184,5.26436782 C109.506935,5.26436782 109,4.75743247 109,4.13218391 C109,3.50693534 109.506935,3 110.132184,3 L130.511494,3 C131.136743,3 131.643678,3.50693534 131.643678,4.13218391 C131.643678,4.75743247 131.136743,5.26436782 130.511494,5.26436782" id="align-left"></path>
            </g>
        </g>
    </g>
</svg>